<?xml version="1.0" encoding="utf-8"?>
<!-- Generator: Adobe Illustrator 15.0.0, SVG Export Plug-In . SVG Version: 6.00 Build 0)  -->
<!DOCTYPE svg PUBLIC "-//W3C//DTD SVG 1.1//EN" "http://www.w3.org/Graphics/SVG/1.1/DTD/svg11.dtd">
<svg version="1.1" id="Layer_1" xmlns="http://www.w3.org/2000/svg" xmlns:xlink="http://www.w3.org/1999/xlink" x="0px" y="0px"
	 width="125px" height="122px" viewBox="0 0 125 122" enable-background="new 0 0 125 122" xml:space="preserve">
<circle fill="#282828" cx="61.5" cy="61.5" r="46"/>
<g>
	<path fill="#FFFFFF" d="M50.814,71.996l13.246-13.004c1.067-1.034,1.918-2.078,2.548-3.129c0.631-1.052,0.946-2.256,0.946-3.615
		c0-1.617-0.526-2.903-1.576-3.857c-1.053-0.953-2.354-1.432-3.907-1.432c-1.649,0-2.977,0.558-3.979,1.674
		c-1.003,1.117-1.617,2.516-1.843,4.198l-5.678-0.874c0.162-1.423,0.565-2.733,1.213-3.931c0.647-1.196,1.472-2.232,2.476-3.105
		c1.002-0.874,2.174-1.56,3.518-2.062c1.342-0.501,2.806-0.752,4.391-0.752c1.489,0,2.918,0.211,4.295,0.631
		c1.374,0.421,2.596,1.061,3.662,1.917c1.066,0.858,1.916,1.91,2.547,3.154c0.631,1.245,0.945,2.692,0.945,4.342
		c0,1.1-0.145,2.128-0.437,3.081c-0.29,0.955-0.688,1.853-1.188,2.693c-0.502,0.842-1.085,1.643-1.747,2.401
		c-0.661,0.761-1.383,1.497-2.159,2.208l-9.898,9.462h15.479v5.338H50.814V71.996z"/>
</g>
</svg>
