<?xml version="1.0" encoding="utf-8"?>
<!-- Generator: Adobe Illustrator 15.0.0, SVG Export Plug-In . SVG Version: 6.00 Build 0)  -->
<!DOCTYPE svg PUBLIC "-//W3C//DTD SVG 1.1//EN" "http://www.w3.org/Graphics/SVG/1.1/DTD/svg11.dtd">
<svg version="1.1" id="Layer_1" xmlns="http://www.w3.org/2000/svg" xmlns:xlink="http://www.w3.org/1999/xlink" x="0px" y="0px"
	 width="125px" height="122px" viewBox="0 0 125 122" enable-background="new 0 0 125 122" xml:space="preserve">
<circle fill="#282828" cx="62.5" cy="59.5" r="46"/>
<g>
	<path fill="#FFFFFF" d="M59.611,56.276h1.516c0.853,0,1.697-0.071,2.534-0.213c0.837-0.142,1.603-0.402,2.298-0.782
		c0.695-0.378,1.255-0.892,1.682-1.539c0.426-0.646,0.64-1.492,0.64-2.534c0-0.758-0.144-1.437-0.426-2.037
		c-0.285-0.599-0.672-1.105-1.16-1.516c-0.49-0.41-1.06-0.726-1.706-0.947c-0.647-0.22-1.319-0.332-2.013-0.332
		c-1.39,0-2.543,0.395-3.458,1.184c-0.916,0.79-1.547,1.832-1.894,3.126l-5.353-1.373c0.284-1.137,0.766-2.171,1.445-3.103
		c0.678-0.931,1.499-1.736,2.463-2.416c0.963-0.678,2.043-1.208,3.244-1.586c1.2-0.379,2.462-0.569,3.789-0.569
		c1.452,0,2.833,0.198,4.141,0.592c1.306,0.395,2.453,0.979,3.439,1.753c0.987,0.773,1.761,1.729,2.325,2.865
		s0.847,2.463,0.847,3.979c0,1.8-0.545,3.403-1.635,4.808c-1.089,1.405-2.55,2.329-4.382,2.771v0.094
		c2.054,0.412,3.72,1.334,4.997,2.771c1.28,1.438,1.919,3.196,1.919,5.281c0,1.736-0.337,3.252-1.009,4.547
		c-0.675,1.295-1.566,2.368-2.679,3.221c-1.113,0.853-2.361,1.492-3.75,1.918c-1.389,0.428-2.793,0.641-4.214,0.641
		c-1.421,0-2.764-0.15-4.027-0.45c-1.263-0.301-2.424-0.765-3.481-1.396s-1.989-1.453-2.794-2.464c-0.806-1.01-1.43-2.211-1.871-3.6
		l5.305-1.658c0.411,1.326,1.175,2.447,2.297,3.363c1.121,0.916,2.581,1.373,4.382,1.373c0.726,0,1.461-0.103,2.202-0.308
		s1.404-0.528,1.989-0.972c0.584-0.441,1.058-1.01,1.421-1.705c0.362-0.693,0.545-1.546,0.545-2.558
		c0-1.072-0.261-1.981-0.782-2.723c-0.52-0.741-1.176-1.326-1.964-1.753c-0.791-0.427-1.666-0.734-2.629-0.923
		c-0.964-0.19-1.888-0.284-2.772-0.284h-1.421V56.276z"/>
</g>
</svg>
