<?xml version="1.0" encoding="utf-8"?>
<!-- Generator: Adobe Illustrator 15.0.0, SVG Export Plug-In . SVG Version: 6.00 Build 0)  -->
<!DOCTYPE svg PUBLIC "-//W3C//DTD SVG 1.1//EN" "http://www.w3.org/Graphics/SVG/1.1/DTD/svg11.dtd">
<svg version="1.1" id="Layer_1" xmlns="http://www.w3.org/2000/svg" xmlns:xlink="http://www.w3.org/1999/xlink" x="0px" y="0px"
	 width="125px" height="122px" viewBox="0 0 125 122" enable-background="new 0 0 125 122" xml:space="preserve">
<circle fill="#282828" cx="62.5" cy="60.5" r="60.25"/>
<g id="Layer_1_1_">
</g>
<path fill="#FFFFFF" d="M100.023,47.138c-0.545-0.099,0.158-0.395-0.027-0.725c-0.407,0.003-0.75,0.067-1.005,0.211
	c1.241-1.037,2.818-2.951,3.542-4.842c-0.514-0.195-1.256-0.149-1.997-0.103c3.103-1.202,5.122-3.402,7.217-5.537
	c-7.886-0.138-12.175,3.97-11.151,11.492c-3.84-6.451-14.9-3.49-17.499,2.132c1.514-0.563,3.568-0.238,5.406-0.754
	c1.461-0.409,2.532-1.912,3.724-2.139c0.707,0.209-0.842,1.14-0.834,1.847c2.695,0.287,4.593,1.054,6.698-0.263
	c-0.312,0.527-1.005,0.701-1.217,1.316c0.863,0.135,1.499,0.517,2.38,0.632c-7.511,0.787-11.204,6.262-11.165,13.765
	c0.106-0.063,0.224-0.119,0.354-0.163c0.17-0.055,0.338-0.117,0.505-0.176l0.176-0.111c0.386-0.174,0.768-0.355,1.153-0.528
	c0.213-0.13,0.431-0.26,0.647-0.386c0.266-0.247,0.546-0.475,0.832-0.696c0.029-1.648,0.428-2.957,0.712-4.371
	c0.344,0.699,0.413,1.692,0.643,2.512c1.976-1.72,3.804-3.576,4.271-6.691c0.432,0.334-0.24,1.112,0.243,1.623
	c0.461,0.299,0.902-0.904,1.594-0.968c-0.007,1.078,1.089,0.958,1.339,1.76c-0.94,2.539-1.68,5.035-2.295,7.562
	c-5.225,3.295-31.669,17.958-64.04,0.468c-0.638-2.685-1.402-5.334-2.401-8.03c0.249-0.803,1.347-0.682,1.336-1.76
	c0.692,0.064,1.134,1.267,1.595,0.968c0.485-0.511-0.188-1.289,0.246-1.623c0.466,3.116,2.293,4.972,4.269,6.691
	c0.229-0.82,0.299-1.812,0.642-2.512c0.286,1.414,0.684,2.723,0.713,4.371c0.286,0.222,0.568,0.449,0.833,0.696
	c0.218,0.126,0.435,0.256,0.648,0.386c0.384,0.173,0.766,0.354,1.151,0.528l0.177,0.111c0.167,0.059,0.334,0.121,0.504,0.176
	c0.13,0.044,0.248,0.1,0.354,0.163c0.04-7.502-3.655-12.978-11.165-13.765c0.881-0.115,1.518-0.497,2.381-0.632
	c-0.213-0.615-0.907-0.789-1.218-1.316c2.105,1.317,4.004,0.55,6.698,0.263c0.007-0.707-1.54-1.638-0.835-1.847
	c1.193,0.227,2.263,1.729,3.724,2.139c1.84,0.516,3.895,0.191,5.407,0.754c-2.598-5.622-13.66-8.583-17.497-2.132
	c1.022-7.522-3.269-11.63-11.153-11.492c2.092,2.135,4.115,4.335,7.215,5.537c-0.741-0.046-1.481-0.092-1.997,0.103
	c0.725,1.891,2.301,3.806,3.544,4.842c-0.255-0.145-0.598-0.208-1.006-0.211c-0.186,0.33,0.517,0.626-0.029,0.725
	c-3.507-6.802-15.675-3.923-17.271,1.319c1.7-0.364,3.437-0.687,5.639-0.504c1.087-0.776,2.853-1.817,4.059-1.836
	c-0.574,0.51-1.217,0.949-1.344,1.943c0.742,0.142,4.278,1.252,6.704,0.08c0.314,0.229-1.068,1.226-0.956,1.231
	c0.89,0.4,2.015,0.579,2.673,1.191c-0.544,1.01-1.738,0.799-2.583,1.168c-6.659,2.896-7.957,14.285-3.325,20.17
	c0.334-2.342,0.506-4.858,1.173-6.841c-0.319-1.393-1.134-3.251-0.532-4.916c0.25,0.875,0.574,1.677,1.369,2.048
	c0.713-2.562,2.646-4.261,1.745-7.547c0.864,0.075,0.241,1.523,1.022,1.671c0.375-0.852,0.799-1.649,1.532-2.112
	c0.842,0.738,0.714,3.089,2.631,2.277c0.96,5.229,2.658,11.403,1.341,16.728c1.346,0.668,0.254,3.297,0.004,4.53
	c0.598,0.145,0.561,0.338,0.507,0.927c-0.166,1.203-0.532,2.188-0.851,3.23c0.79,1.09-0.097,3.566-0.656,5.392h5.642
	c-0.115-1.984-0.111-3.104-0.458-5.284c0.319-0.102,0.371-0.258,0.372-0.279c-0.012-1.324-0.194-4.885-0.338-5.27
	c-0.311-2.14-0.626-4.182-0.97-6.175c6.84,7.253,32.032,29.431,61.463-0.362c-0.368,2.107-0.704,4.27-1.033,6.537
	c-0.146,0.385-0.327,3.945-0.339,5.27c0.001,0.021,0.051,0.178,0.372,0.279c-0.349,2.18-0.344,3.3-0.457,5.284h5.64
	c-0.558-1.825-1.444-4.302-0.655-5.392c-0.318-1.043-0.686-2.027-0.851-3.23c-0.053-0.589-0.091-0.782,0.507-0.927
	c-0.248-1.233-1.343-3.862,0.005-4.53c-1.316-5.324,0.381-11.498,1.341-16.728c1.916,0.812,1.788-1.539,2.631-2.277
	c0.733,0.462,1.156,1.26,1.532,2.112c0.78-0.147,0.156-1.596,1.021-1.671c-0.9,3.286,1.033,4.985,1.746,7.547
	c0.794-0.371,1.119-1.173,1.368-2.048c0.604,1.665-0.212,3.523-0.532,4.916c0.667,1.982,0.839,4.499,1.174,6.841
	c4.633-5.886,3.334-17.274-3.325-20.17c-0.845-0.369-2.041-0.158-2.583-1.168c0.659-0.612,1.784-0.792,2.673-1.191
	c0.112-0.005-1.269-1.001-0.955-1.231c2.425,1.172,5.96,0.062,6.703-0.08c-0.128-0.994-0.771-1.433-1.346-1.943
	c1.207,0.02,2.973,1.061,4.062,1.836c2.202-0.183,3.938,0.14,5.638,0.504C115.7,43.215,103.533,40.336,100.023,47.138z"/>
<path fill="#FFFFFF" d="M71.508,50.754l-2.586-0.026c0.738,0.757,1.322,1.556,1.812,2.493L71.508,50.754z"/>
<path fill="#FFFFFF" d="M68.822,48.07l-2.465,0.774c0.935,0.493,1.736,1.07,2.492,1.811L68.822,48.07z"/>
<path fill="#FFFFFF" d="M65.441,46.348l-2.105,1.499c1.042,0.18,1.982,0.481,2.93,0.951L65.441,46.348z"/>
<path fill="#FFFFFF" d="M57.947,46.348l-0.825,2.448c0.948-0.465,1.889-0.773,2.931-0.949L57.947,46.348z"/>
<path fill="#FFFFFF" d="M52.608,53.313l-2.45,0.822l1.498,2.107C51.837,55.201,52.14,54.259,52.608,53.313z"/>
<path fill="#FFFFFF" d="M63.235,47.829l-1.541-2.075l-1.539,2.075C61.199,47.68,62.189,47.677,63.235,47.829z"/>
<path fill="#FFFFFF" d="M71.75,56.345c0.07,0.488,0.104,0.965,0.109,1.442c0.627,0.007,1.254,0.023,1.879,0.032L71.75,56.345z"/>
<path fill="#FFFFFF" d="M54.466,50.728l-2.584,0.026l0.772,2.467C53.148,52.285,53.727,51.484,54.466,50.728z"/>
<path fill="#FFFFFF" d="M54.564,48.07l-0.025,2.585c0.758-0.737,1.556-1.321,2.492-1.811L54.564,48.07z"/>
<path fill="#FFFFFF" d="M71.732,56.241l1.498-2.106l-2.449-0.823C71.247,54.259,71.557,55.199,71.732,56.241z"/>
<path fill="#FFFFFF" d="M49.7,57.784c0.61-0.006,1.22-0.016,1.83-0.021c0.006-0.469,0.04-0.938,0.11-1.419L49.7,57.784z"/>
<path fill="#FFFFFF" d="M41.868,57.878c-0.354,0.004-0.417,0.552-0.053,0.557c13.236,0.203,26.476,0.233,39.717-0.08
	c0.252-0.006,0.299-0.391,0.038-0.397c-2.61-0.062-5.22-0.101-7.831-0.138c-0.625-0.009-1.252-0.025-1.879-0.032
	c-6.777-0.08-13.553-0.08-20.329-0.023c-0.61,0.005-1.22,0.015-1.83,0.021C47.089,57.809,44.479,57.837,41.868,57.878z"/>
</svg>
