<?xml version="1.0" encoding="utf-8"?>
<!-- Generator: Adobe Illustrator 15.0.0, SVG Export Plug-In . SVG Version: 6.00 Build 0)  -->
<!DOCTYPE svg PUBLIC "-//W3C//DTD SVG 1.1//EN" "http://www.w3.org/Graphics/SVG/1.1/DTD/svg11.dtd">
<svg version="1.1" id="Layer_1" xmlns="http://www.w3.org/2000/svg" xmlns:xlink="http://www.w3.org/1999/xlink" x="0px" y="0px"
	 width="125px" height="122px" viewBox="-37.5 -37.5 125 122" enable-background="new -37.5 -37.5 125 122" xml:space="preserve">
<circle fill="#282828" cx="8.484" cy="42.691" r="38.529"/>
<g id="Expanded">
	<g>
		<g>
			<path fill="#282828" d="M6.994,83.95c-22.403,0-40.634-18.232-40.634-40.633c0-17.54,11.393-33.124,27.937-38.569v-7.146
				c0-1.402,1.14-2.542,2.542-2.542h20.316c1.399,0,2.539,1.14,2.539,2.542v7.146C36.237,10.193,47.63,25.777,47.63,43.317
				C47.625,65.718,29.4,83.95,6.994,83.95z M-0.626,0.145v6.492c0,1.143-0.761,2.14-1.861,2.446
				c-15.351,4.244-26.075,18.32-26.075,34.234c0,19.608,15.948,35.559,35.556,35.559c19.609,0,35.552-15.95,35.552-35.559
				c0-15.914-10.722-29.99-26.072-34.234c-1.098-0.309-1.861-1.307-1.861-2.446V0.145H-0.626z"/>
		</g>
		<g>
			<path fill="#282828" d="M42.546,2.684c-7.004,0-12.696-5.698-12.696-12.697c0-5.604-4.557-10.158-10.16-10.158
				c-5.6,0-10.158,4.554-10.158,10.158v7.619c0,1.4-1.14,2.54-2.542,2.54c-1.399,0-2.539-1.14-2.539-2.54v-7.619
				c0-8.405,6.833-15.239,15.235-15.239s15.234,6.833,15.234,15.239c0,4.2,3.419,7.619,7.619,7.619c4.201,0,7.621-3.419,7.621-7.619
				c0-4.201,3.419-7.619,7.619-7.619c1.402,0,2.536,1.14,2.536,2.542c0,1.399-1.134,2.537-2.536,2.537s-2.542,1.143-2.542,2.542
				C55.244-3.015,49.546,2.684,42.546,2.684z"/>
		</g>
		<g>
			<path fill="#282828" d="M57.786-22.713c-1.402,0-2.542-1.14-2.542-2.54v-10.159c0-1.399,1.14-2.539,2.542-2.539
				s2.536,1.14,2.536,2.539v10.159C60.322-23.85,59.188-22.713,57.786-22.713z"/>
		</g>
		<g>
			<path fill="#282828" d="M64.968-19.734c-0.647,0-1.304-0.25-1.793-0.746c-0.997-0.991-0.997-2.6,0-3.594l7.181-7.184
				c0.991-0.994,2.6-0.994,3.59,0c0.993,0.988,0.993,2.599,0,3.588l-7.181,7.186C66.269-19.985,65.615-19.734,64.968-19.734z"/>
		</g>
		<g>
			<path fill="#282828" d="M50.602-19.734c-0.65,0-1.301-0.25-1.795-0.746l-7.185-7.186c-0.99-0.993-0.99-2.6,0-3.589
				c0.99-0.993,2.602-0.993,3.592,0l7.185,7.185c0.99,0.994,0.99,2.603,0,3.594C51.903-19.985,51.253-19.734,50.602-19.734z"/>
		</g>
		<g>
			<path fill="#282828" d="M78.102-12.556H67.942c-1.401,0-2.538-1.139-2.538-2.538c0-1.402,1.137-2.542,2.538-2.542h10.159
				c1.401,0,2.538,1.14,2.538,2.542C80.64-13.691,79.503-12.556,78.102-12.556z"/>
		</g>
		<g>
			<path fill="#282828" d="M72.152,1.807c-0.653,0-1.304-0.251-1.797-0.743l-7.188-7.18c-0.993-0.992-0.993-2.599,0-3.592
				c0.991-0.994,2.603-0.991,3.593,0l7.19,7.18c0.99,0.992,0.99,2.597,0,3.592C73.45,1.559,72.806,1.807,72.152,1.807z"/>
		</g>
		<g>
			<path fill="#FFFDFD" d="M-15.92,61.83c-0.804,0-1.591-0.379-2.083-1.089c-4.656-6.677-6.431-14.769-4.999-22.782
				c1.431-8.014,5.896-14.989,12.579-19.641c1.151-0.799,2.731-0.516,3.535,0.633c0.799,1.149,0.519,2.734-0.632,3.536
				c-11.491,8.008-14.322,23.868-6.316,35.357c0.804,1.149,0.521,2.734-0.633,3.536C-14.916,61.684-15.419,61.83-15.92,61.83z"/>
		</g>
	</g>
</g>
<rect x="-3.8" y="-2.184" fill="#282828" width="20.741" height="14.18"/>
</svg>
