<?xml version="1.0" encoding="utf-8"?>
<!-- Generator: Adobe Illustrator 15.0.0, SVG Export Plug-In . SVG Version: 6.00 Build 0)  -->
<!DOCTYPE svg PUBLIC "-//W3C//DTD SVG 1.1//EN" "http://www.w3.org/Graphics/SVG/1.1/DTD/svg11.dtd">
<svg version="1.1" id="Layer_1" xmlns="http://www.w3.org/2000/svg" xmlns:xlink="http://www.w3.org/1999/xlink" x="0px" y="0px"
	 width="125px" height="122px" viewBox="0 0 125 122" enable-background="new 0 0 125 122" xml:space="preserve">
<circle fill="#282828" cx="62.5" cy="60.5" r="60.25"/>
<path fill="#FFFFFF" d="M40.544,50.001c0-0.984-0.812-2-2-2c-0.531,0-0.994,0.193-1.38,0.58l-9.958,9.958
	c-0.328,0.328-0.662,0.733-0.662,1.462s0.279,1.08,0.646,1.447l9.974,9.973c0.386,0.387,0.849,0.58,1.38,0.58c1.188,0,2-1.016,2-2
	c0-0.516-0.186-0.986-0.58-1.38l-8.62-8.62l8.62-8.62C40.359,50.987,40.544,50.517,40.544,50.001z"/>
<g id="meanicons_x5F_14">
	<g>
		<path fill="#FFFFFF" d="M57.839,62.046c-0.723,1.643-0.701,2.64-1.408,5.507c1.193,0.354,3.579,1.292,5.768,3.551
			c2.084-2.34,3.211-2.969,4.192-4.575c6.406-10.491,19.25-44.714,18.237-45.242C83.558,20.724,62.812,50.809,57.839,62.046z"/>
		<path fill="#FFFFFF" d="M54.553,70.506c-4.104,0.61-7.107,4.339-7.614,11.312c-0.511,6.975-4.254,10.949-5.188,11.095
			c5.338,0.132,21.332-0.316,19.333-18.297C58.208,71.104,54.553,70.506,54.553,70.506z"/>
	</g>
</g>
<g id="Layer_1_1_">
</g>
<path fill="#FFFFFF" d="M98.795,59.539l-9.958-9.958c-0.386-0.387-0.849-0.58-1.38-0.58c-1.188,0-2,1.016-2,2
	c0,0.516,0.186,0.986,0.58,1.38l8.62,8.62l-8.62,8.621c-0.395,0.393-0.58,0.863-0.58,1.379c0,0.984,0.812,2,2,2
	c0.531,0,0.994-0.193,1.38-0.58l9.974-9.973c0.367-0.367,0.646-0.719,0.646-1.447S99.123,59.867,98.795,59.539z"/>
</svg>
