<?xml version="1.0" encoding="utf-8"?>
<!-- Generator: Adobe Illustrator 15.0.0, SVG Export Plug-In . SVG Version: 6.00 Build 0)  -->
<!DOCTYPE svg PUBLIC "-//W3C//DTD SVG 1.1//EN" "http://www.w3.org/Graphics/SVG/1.1/DTD/svg11.dtd">
<svg version="1.1" id="Layer_1" xmlns="http://www.w3.org/2000/svg" xmlns:xlink="http://www.w3.org/1999/xlink" x="0px" y="0px"
	 width="125px" height="122px" viewBox="0 0 125 122" enable-background="new 0 0 125 122" xml:space="preserve">
<path fill="#282828" d="M106.476,84.937v-0.014L81.989,61.888l23.914-23.91c5.691-5.68,5.691-14.893,0-20.573
	c-5.676-5.685-14.896-5.685-20.581,0l-22.095,22.09c0.964-6.944-1.193-14.231-6.529-19.569c-7.316-7.318-18.314-8.709-27.041-4.194
	l11.027,11.025c2.745,2.743,2.745,7.183,0,9.929c-2.743,2.745-7.187,2.745-9.93,0L19.731,25.657
	c-4.521,8.723-3.123,19.719,4.196,27.039c6.364,6.375,15.537,8.236,23.562,5.621c1.371,1.404,2.743,2.828,4.12,4.26
	c0.226,0.67,0.485,1.326,0.812,1.963l-9.5,9.509l-9.812,1.877l-15.965,24.22l3.001,3.014l3.01,3.014l24.232-15.969l1.88-9.812
	l9.498-9.505c0.39,0.194,0.8,0.333,1.203,0.498c12.705,13.529,24.271,26.395,28.968,31.088v0.008
	c4.887,4.888,12.775,4.932,17.624,0.085C111.396,97.721,111.364,89.825,106.476,84.937z M104.099,35.294L79.673,59.713l0,0
	L78.08,61.31c-1.064,1.091-2.826,1.086-3.889,0c-1.093-1.079-1.085-2.805,0.005-3.904l25.996-26
	c1.087-1.085,2.821-1.085,3.906,0.006C105.173,32.48,105.173,34.232,104.099,35.294z M97.599,21.79c1.057-1.083,2.817-1.083,3.882,0
	c1.093,1.081,1.093,2.814-0.006,3.9L73.376,53.793l0,0l-1.406,1.412c-1.064,1.075-2.826,1.075-3.883,0
	c-1.091-1.087-1.091-2.819,0-3.909L97.599,21.79z M87.973,19.185c1.069-1.089,2.823-1.089,3.887,0
	c1.087,1.072,1.087,2.811-0.005,3.901L67.078,47.861l-1.224,1.222c-1.083,1.089-2.818,1.089-3.896-0.003
	c-1.077-1.071-1.077-2.816,0-3.881l1.11-1.108l0,0L87.973,19.185z M101.387,97.38c-1.957,1.955-5.121,1.955-7.086,0
	c-1.952-1.956-1.952-5.122,0-7.076c1.965-1.957,5.129-1.957,7.086,0C103.335,92.257,103.335,95.424,101.387,97.38z"/>
</svg>
