<?xml version="1.0" encoding="utf-8"?>
<!-- Generator: Adobe Illustrator 15.0.0, SVG Export Plug-In . SVG Version: 6.00 Build 0)  -->
<!DOCTYPE svg PUBLIC "-//W3C//DTD SVG 1.1//EN" "http://www.w3.org/Graphics/SVG/1.1/DTD/svg11.dtd">
<svg version="1.1" id="Layer_1" xmlns="http://www.w3.org/2000/svg" xmlns:xlink="http://www.w3.org/1999/xlink" x="0px" y="0px"
	 width="125px" height="122px" viewBox="0 0 125 122" enable-background="new 0 0 125 122" xml:space="preserve">
<circle fill="#282828" cx="62.5" cy="60.5" r="60.25"/>
<g id="Layer_1_1_">
</g>
<g id="g1880">
	<g id="g1882">
		<g id="g1884">
			<path id="path1886" fill="#FFFFFF" d="M38.729,55.039c4.627,0,8.378-3.751,8.378-8.377c0-4.627-3.75-8.379-8.378-8.379
				c-4.626,0-8.377,3.752-8.377,8.379C30.352,51.288,34.103,55.039,38.729,55.039z"/>
			<path id="path1888" fill="#FFFFFF" d="M38.729,46.661"/>
		</g>
		<path id="path1890" fill="#FFFFFF" d="M56.82,44.286h33.487c4.914,0,7.808,3.162,7.808,7.395v12.122H56.82V44.286z"/>
		<path id="path1892" fill="#FFFFFF" d="M47.705,48.623v7.271H34.829c-6.216,0.022-6.226,8.011,0,8.011h16.879
			c2.465,0,4.008-1.988,4.008-4.239V48.623C55.717,42.573,47.705,42.573,47.705,48.623z"/>
		<path id="path1894" fill="#FFFFFF" d="M28.752,37.3c0-6.597-9.152-6.597-9.152,0v52.902h9.356V76.54h71.187V90.1h9.152V49.24
			c0-6.963-9.254-6.963-9.254,0v16.308H28.752V37.3z"/>
	</g>
	<g id="g1896">
		<g id="g1898">
			<path id="path1902" fill="#FFFFFF" d="M64.275,16.213"/>
		</g>
		<g id="g1904">
			<path id="path1908" fill="#FFFFFF" d="M64.275,16.213"/>
		</g>
	</g>
</g>
</svg>
