<?xml version="1.0" encoding="utf-8"?>
<!-- Generator: Adobe Illustrator 15.0.0, SVG Export Plug-In . SVG Version: 6.00 Build 0)  -->
<!DOCTYPE svg PUBLIC "-//W3C//DTD SVG 1.1//EN" "http://www.w3.org/Graphics/SVG/1.1/DTD/svg11.dtd">
<svg version="1.1" id="Layer_1" xmlns="http://www.w3.org/2000/svg" xmlns:xlink="http://www.w3.org/1999/xlink" x="0px" y="0px"
	 width="125px" height="122px" viewBox="0 0 125 122" enable-background="new 0 0 125 122" xml:space="preserve">
<g id="background">
	<rect x="3" y="-1" fill="none" width="122" height="122"/>
</g>
<g id="computer_x5F_settings">
	<path fill="#282828" d="M120.294,103.963c2.971-5.074,4.702-10.969,4.706-17.275c-0.004-11.899-6.058-22.372-15.25-28.525V6.625
		h-91.5V75.25h40.115c-0.862,2.435-1.477,4.981-1.769,7.625H18.25L3,113.375h66.146c5.89,4.758,13.381,7.621,21.542,7.625
		c8.169-0.004,15.645-2.867,21.535-7.625L120.294,103.963z M25.875,67.625V14.25h76.25v40.119c-3.582-1.27-7.416-1.994-11.438-1.994
		c-11.902,0-22.376,6.054-28.528,15.25H25.875z M64.439,86.688c0.033-14.49,11.758-26.215,26.248-26.248
		c14.483,0.033,26.207,11.758,26.24,26.248c-0.033,14.483-11.757,26.207-26.24,26.24C76.197,112.895,64.473,101.171,64.439,86.688z"
		/>
	<path fill="#282828" d="M109.75,90.5v-7.629h-6.341c-0.241-0.808-0.555-1.574-0.935-2.312l4.527-4.524l-5.398-5.395l-4.441,4.445
		c-0.838-0.469-1.724-0.841-2.658-1.12v-6.341h-7.625v6.337c-0.875,0.261-1.701,0.603-2.483,1.027l-4.353-4.345l-5.395,5.395
		l4.349,4.349c-0.433,0.79-0.774,1.616-1.035,2.487h-6.337V90.5h6.337c0.275,0.938,0.655,1.824,1.124,2.662l-4.441,4.435
		l5.388,5.398l4.527-4.527c0.733,0.387,1.504,0.692,2.308,0.935v6.348H94.5v-6.348c0.871-0.257,1.697-0.604,2.479-1.031l4.624,4.624
		l5.392-5.398l-4.624-4.617c0.424-0.782,0.767-1.608,1.031-2.479H109.75z M90.684,92.402c-3.161-0.008-5.711-2.558-5.723-5.719
		c0.012-3.161,2.562-5.711,5.723-5.723c3.161,0.012,5.711,2.562,5.719,5.723C96.395,89.845,93.845,92.395,90.684,92.402z"/>
</g>
<ellipse fill="none" stroke="#282828" stroke-width="2" stroke-miterlimit="10" cx="91.647" cy="87.688" rx="31.698" ry="32.525"/>
</svg>
