<?xml version="1.0" encoding="utf-8"?>
<!-- Generator: Adobe Illustrator 15.0.0, SVG Export Plug-In . SVG Version: 6.00 Build 0)  -->
<!DOCTYPE svg PUBLIC "-//W3C//DTD SVG 1.1//EN" "http://www.w3.org/Graphics/SVG/1.1/DTD/svg11.dtd">
<svg version="1.1" id="Layer_1" xmlns="http://www.w3.org/2000/svg" xmlns:xlink="http://www.w3.org/1999/xlink" x="0px" y="0px"
	 width="325px" height="66px" viewBox="0 0 325 66" enable-background="new 0 0 325 66" xml:space="preserve">
<g>
	<path fill="#FFFFFF" d="M18.172,13.877c5.992,0,9.072,3.584,9.072,9.856v1.232H21.42v-1.624c0-2.8-1.12-3.864-3.08-3.864
		s-3.08,1.064-3.08,3.864c0,8.064,12.04,9.576,12.04,20.776c0,6.272-3.136,9.856-9.184,9.856c-6.048,0-9.184-3.584-9.184-9.856
		v-2.408h5.824v2.8c0,2.8,1.232,3.808,3.192,3.808c1.96,0,3.192-1.008,3.192-3.808c0-8.064-12.04-9.576-12.04-20.776
		C9.1,17.461,12.18,13.877,18.172,13.877z"/>
	<path fill="#FFFFFF" d="M30.324,23.733c0-6.272,3.304-9.856,9.352-9.856s9.352,3.584,9.352,9.856v20.384
		c0,6.272-3.304,9.856-9.352,9.856s-9.352-3.584-9.352-9.856V23.733z M36.484,44.509c0,2.8,1.232,3.864,3.192,3.864
		s3.192-1.064,3.192-3.864V23.341c0-2.8-1.232-3.864-3.192-3.864s-3.192,1.064-3.192,3.864V44.509z"/>
	<path fill="#FFFFFF" d="M59.164,31.742h7.952v5.6h-7.952v16.184h-6.16v-39.2H69.3v5.6H59.164V31.742z"/>
	<path fill="#FFFFFF" d="M70.476,14.326h19.04v5.6h-6.44v33.6h-6.16v-33.6h-6.44V14.326z"/>
	<path fill="#FFFFFF" d="M105.866,32.638l-2.24,20.888H95.17l-4.368-39.2h5.992l3.304,30.912l2.968-30.912h5.936l3.08,31.136
		l3.192-31.136h5.376l-4.368,39.2h-8.176L105.866,32.638z"/>
	<path fill="#FFFFFF" d="M142.826,53.525h-6.216l-1.064-7.112h-7.56l-1.064,7.112h-5.656l6.272-39.2h9.016L142.826,53.525z
		 M128.77,41.093h5.936l-2.968-19.824L128.77,41.093z"/>
	<path fill="#FFFFFF" d="M158.562,53.525c-0.336-1.008-0.561-1.624-0.561-4.816v-6.16c0-3.64-1.231-4.984-4.031-4.984h-2.128v15.96
		h-6.16v-39.2h9.296c6.384,0,9.128,2.968,9.128,9.016v3.08c0,4.032-1.288,6.664-4.032,7.952c3.08,1.288,4.088,4.256,4.088,8.344
		v6.048c0,1.904,0.057,3.304,0.672,4.76H158.562z M151.842,19.926v12.04h2.407c2.296,0,3.696-1.008,3.696-4.144v-3.864
		c0-2.8-0.952-4.032-3.136-4.032H151.842z"/>
	<path fill="#FFFFFF" d="M173.233,30.846h8.455v5.6h-8.455v11.48h10.64v5.6h-16.8v-39.2h16.8v5.6h-10.64V30.846z"/>
	<path fill="#FFFFFF" d="M204.412,13.629c0.501,0,0.752,0.072,0.752,0.215l-1.16,5.973c-0.487,0.229-0.938,0.344-1.354,0.344h-0.559
		c-0.315,0-0.566-1.153-0.752-3.459c-2.363,0.444-4.226,0.96-5.586,1.547c-2.135,1.132-3.56,2.564-4.275,4.297
		c-0.917,1.862-1.375,4.698-1.375,8.508v2.857c0,5.715,0.207,8.988,0.623,9.818c0.701,2.22,1.833,3.76,3.395,4.619
		c1.317,0.73,2.843,1.096,4.576,1.096c1.633,0,3.738-0.408,6.316-1.225c0.458,0.945,0.688,1.647,0.688,2.105v0.279
		c0,0.673-0.702,1.167-2.105,1.482c-2.421,0.96-4.713,1.439-6.875,1.439c-5.572,0-8.931-3.81-10.076-11.43
		c-0.229-1.977-0.344-3.91-0.344-5.801c0-3.924,0.451-9.03,1.354-15.318c0.143-0.959,0.938-2.206,2.385-3.738
		C192.932,14.832,197.723,13.629,204.412,13.629z"/>
	<path fill="#FFFFFF" d="M208.107,13.908h0.666c0.602,0,1.017,0.043,1.246,0.129l0.602-0.064c3.752,0,7.369,0.867,10.85,2.6
		c2.721,1.733,4.082,3.889,4.082,6.467v0.688c0,3.781-2.292,6.739-6.875,8.873l-0.752,0.258c4.54,10.642,6.811,16.736,6.811,18.283
		v0.193c-0.229,1.146-0.981,1.719-2.256,1.719h-0.193c-0.187-0.1-0.917-1.647-2.191-4.641l-6.617-14.395l-1.826,0.215l0.129,18.885
		c0,0.272-0.315,0.408-0.945,0.408h-0.279c-1.146,0-2.191-0.157-3.137-0.473l0.064-0.408l0.15-38.393
		C207.691,14.023,207.85,13.908,208.107,13.908z M211.438,18.334l0.15,13.041c0.816,0,2.678-0.709,5.586-2.127
		c2.363-1.575,3.545-3.28,3.545-5.113v-0.473c0-2.707-2.686-4.461-8.057-5.264L211.438,18.334z"/>
	<path fill="#FFFFFF" d="M228.346,13.801c0.701,0,1.633,0.136,2.793,0.408l0.064,9.969v27.779c0,1.046-0.229,1.568-0.688,1.568
		h-0.537c-1.117,0-2.02-0.2-2.707-0.602V14.209C227.4,13.937,227.758,13.801,228.346,13.801z"/>
	<path fill="#FFFFFF" d="M243.041,13.672c4.841,0,7.842,1.11,9.002,3.33c0.945,1.347,1.661,3.681,2.148,7.004
		c0.701,4.999,1.053,9.088,1.053,12.268v1.096c0,7.777-2.335,12.884-7.004,15.318c-1.347,0.559-2.614,0.838-3.803,0.838h-0.43
		c-3.581,0-6.488-3.072-8.723-9.217c-1.576-5.356-2.363-10.556-2.363-15.598c0-7.849,2.521-12.726,7.562-14.631
		C241.63,13.808,242.482,13.672,243.041,13.672z M236.811,27.25c0,5.099,0.873,10.484,2.621,16.156
		c1.26,3.323,3.064,4.984,5.414,4.984c2.377-0.258,3.695-0.673,3.953-1.246c0.688-0.473,1.289-1.583,1.805-3.33
		c0.544-1.819,0.816-4.361,0.816-7.627v-0.129c0-6.817-0.645-11.924-1.934-15.318c-1.189-2.12-2.736-3.18-4.641-3.18h-0.215
		c-1.905,0.172-3.824,1.024-5.758,2.557c-0.889,0.716-1.512,1.962-1.869,3.738C236.875,25.202,236.811,26.333,236.811,27.25z"/>
	<path fill="#FFFFFF" d="M257.994,13.564c1.074,0.086,1.998,0.272,2.771,0.559l-0.215,35.686c6.903-0.559,11.737-0.909,14.502-1.053
		c0.172,0,0.308,0.645,0.408,1.934c-0.029,1.433-0.122,2.148-0.279,2.148l-18.154,0.688l-0.064-0.064v-39.08
		C256.963,13.837,257.307,13.564,257.994,13.564z"/>
	<path fill="#FFFFFF" d="M278.211,13.564c1.074,0.086,1.998,0.272,2.771,0.559l-0.215,35.686c6.903-0.559,11.737-0.909,14.502-1.053
		c0.172,0,0.308,0.645,0.408,1.934c-0.029,1.433-0.122,2.148-0.279,2.148l-18.154,0.688l-0.064-0.064v-39.08
		C277.18,13.837,277.523,13.564,278.211,13.564z"/>
	<path fill="#FFFFFF" d="M303.995,13.672c4.841,0,7.842,1.11,9.002,3.33c0.945,1.347,1.661,3.681,2.148,7.004
		c0.701,4.999,1.053,9.088,1.053,12.268v1.096c0,7.777-2.335,12.884-7.004,15.318c-1.347,0.559-2.614,0.838-3.803,0.838h-0.43
		c-3.581,0-6.488-3.072-8.723-9.217c-1.576-5.356-2.363-10.556-2.363-15.598c0-7.849,2.521-12.726,7.562-14.631
		C302.584,13.808,303.437,13.672,303.995,13.672z M297.765,27.25c0,5.099,0.873,10.484,2.621,16.156
		c1.26,3.323,3.064,4.984,5.414,4.984c2.377-0.258,3.695-0.673,3.953-1.246c0.688-0.473,1.289-1.583,1.805-3.33
		c0.544-1.819,0.816-4.361,0.816-7.627v-0.129c0-6.817-0.645-11.924-1.934-15.318c-1.189-2.12-2.736-3.18-4.641-3.18h-0.215
		c-1.905,0.172-3.824,1.024-5.758,2.557c-0.889,0.716-1.512,1.962-1.869,3.738C297.829,25.202,297.765,26.333,297.765,27.25z"/>
</g>
</svg>
